<svg width="157" height="21" viewBox="0 0 157 21" fill="none" xmlns="http://www.w3.org/2000/svg">
<path d="M2.14807 19.9393H0.219169V0.487336H2.14807L9.2388 17.6301L16.3295 0.487336H18.2856V19.9393H16.3567V10.7023C16.3567 7.3064 16.411 5.81218 16.5197 4.48097L10.1897 19.9393H8.31511L1.98506 4.56247C2.09373 5.296 2.14807 7.44223 2.14807 10.4035V19.9393ZM40.3692 19.9393H28.7143V0.487336H40.3421V2.2804H30.6704V9.28963H39.4455V11.0555H30.6704V18.1463H40.3692V19.9393ZM48.0086 2.2804V0.487336H61.9456V2.2804H55.9416V19.9393H53.9855V2.2804H48.0086ZM81.9982 19.9393H70.3433V0.487336H81.9711V2.2804H72.2994V9.28963H81.0745V11.0555H72.2994V18.1463H81.9982V19.9393ZM109.008 10.2133C109.008 16.1087 105.177 20.2653 99.7439 20.2653C94.2833 20.2653 90.4798 16.1087 90.4798 10.2133C90.4798 4.31796 94.3104 0.134158 99.7439 0.134158C105.205 0.134158 109.008 4.2908 109.008 10.2133ZM106.998 10.2133C106.998 5.35033 104.036 2.03589 99.7439 2.03589C95.4515 2.03589 92.5174 5.35033 92.5174 10.2133C92.5174 15.0763 95.4515 18.3908 99.7439 18.3908C104.036 18.3908 106.998 15.0492 106.998 10.2133ZM120.216 19.9393H118.26V0.487336H125.514C129.453 0.487336 131.844 2.66074 131.844 6.11102C131.844 8.90928 130.377 10.8653 127.877 11.5445L132.034 19.9393H129.861L125.894 11.8705H120.216V19.9393ZM120.216 2.25323V10.1047H125.568C128.258 10.1047 129.834 8.63761 129.834 6.16536C129.834 3.63877 128.176 2.25323 125.514 2.25323H120.216ZM141.343 19.9393H139.36L146.505 0.487336H148.923L156.149 19.9393H154.112L152.21 14.7775H143.245L141.343 19.9393ZM147.456 3.23126L143.842 13.0659H151.585L147.945 3.23126C147.863 2.95959 147.727 2.63357 147.7 2.4434C147.673 2.60641 147.564 2.95959 147.456 3.23126Z" fill="white"/>
</svg>
